<?xml version="1.0" encoding="UTF-8"?>
<!DOCTYPE svg PUBLIC "-//W3C//DTD SVG 1.1//EN" "http://www.w3.org/Graphics/SVG/1.1/DTD/svg11.dtd">
<svg xmlns="http://www.w3.org/2000/svg" version="1.1" viewBox="0 0 23 23" stroke="none">
	<rect width="100%" height="100%" fill="#ffffff"/>
	<path d="M1,1h7v1h-7z M9,1h3v1h-3z M13,1h1v2h-1z M15,1h7v1h-7z M1,2h1v6h-1z M7,2h1v6h-1z M9,2h1v2h-1z M11,2h1v4h-1z M15,2h1v6h-1z M21,2h1v6h-1z M3,3h3v3h-3z M10,3h1v4h-1z M12,3h1v2h-1z M17,3h3v3h-3z M13,5h1v4h-1z M9,6h1v4h-1z M2,7h5v1h-5z M11,7h1v2h-1z M16,7h5v1h-5z M10,8h1v1h-1z M3,9h3v1h-3z M7,9h1v1h-1z M12,9h1v3h-1z M14,9h3v1h-3z M19,9h1v5h-1z M20,9h2v1h-2z M2,10h1v2h-1z M4,10h1v1h-1z M6,10h1v2h-1z M10,10h2v1h-2z M13,10h1v2h-1z M16,10h1v1h-1z M1,11h1v1h-1z M3,11h1v2h-1z M7,11h1v1h-1z M15,11h1v3h-1z M17,11h1v3h-1z M5,12h1v1h-1z M9,12h1v1h-1z M11,12h1v1h-1z M16,12h1v1h-1z M20,12h2v2h-2z M1,13h1v1h-1z M4,13h1v1h-1z M7,13h2v1h-2z M12,13h1v3h-1z M14,13h1v1h-1z M9,14h1v1h-1z M11,14h1v1h-1z M13,14h1v4h-1z M18,14h1v1h-1z M1,15h7v1h-7z M14,15h3v1h-3z M21,15h1v1h-1z M1,16h1v6h-1z M7,16h1v6h-1z M10,16h1v1h-1z M14,16h1v2h-1z M18,16h1v1h-1z M3,17h3v3h-3z M9,17h1v3h-1z M11,17h2v2h-2z M15,17h2v1h-2z M19,17h1v5h-1z M10,18h1v1h-1z M16,18h1v1h-1z M13,19h2v1h-2z M17,19h1v3h-1z M18,19h1v1h-1z M14,20h3v1h-3z M20,20h1v1h-1z M2,21h5v1h-5z M11,21h4v1h-4z M18,21h1v1h-1z" fill="#000000"/>
</svg>
