<?xml version="1.0" encoding="utf-8"?>
<svg version="1.1" id="Layer_1" xmlns="http://www.w3.org/2000/svg" 
    xmlns:xlink="http://www.w3.org/1999/xlink" x="0px" y="0px" 
    viewBox="0 0 512 512" style="enable-background:new 0 0 512 512;" 
    xml:space="preserve">
    <g><g>
    <path d="M406.718,317.703H512l-26.975-60.692h26.931L401.874,8.175h-20.657L271.135,257.012h26.931l-26.975,60.692h105.282v40.461 H135.628v-40.461H240.91l-26.974-60.692h26.93L130.784,8.175h-20.657L0.044,257.012h26.931L0,317.703h105.282v40.461H23.348 v30.346h465.304v-30.346h-81.934V317.703z M46.695,287.357l26.974-60.692H46.652l73.803-166.83l73.803,166.83H167.24 l26.974,60.692H46.695z M317.786,287.357l26.974-60.692h-27.019l73.803-166.83l73.803,166.83h-27.019l26.974,60.692H317.786z"/></g></g><g><g><path d="M283.311,473.479c-6.694,0-12.138-5.446-12.138-12.138c0-23.426-19.058-42.484-42.484-42.484H23.348v30.346h205.341 c6.693,0,12.138,5.445,12.138,12.138c0,23.426,19.058,42.484,42.484,42.484h205.341v-30.346H283.311z"/>     
    </g></g>
</svg>